<?xml version="1.0" encoding="UTF-8"?>
<svg height="32px" version="1.1" viewBox="0 0 220 32" width="220px" xmlns="http://www.w3.org/2000/svg" xmlns:xlink="http://www.w3.org/1999/xlink">
    <title>Configure and deploy</title>
    <defs>
        <filter id="filter-1">
            <feColorMatrix in="SourceGraphic" type="matrix" values="0 0 0 0 1.000000 0 0 0 0 1.000000 0 0 0 0 1.000000 0 0 0 1.000000 0"/>
        </filter>
    </defs>
    <g fill="none" fill-rule="evenodd" id="Q1-2021-Round-3-MVP-for-testing" stroke="none" stroke-width="1">
        <g id="button-/-01-primary-/-small-/-02-text-and-icon-/-01-enabled">
            <g id="button-/-01-primary-/-small-/-01-text-/-01-enabled">
                <polygon fill="#0F62FE" fill-rule="evenodd" id="Background" points="0 0 220 0 220 32 0 32"/>
                <g id="utilities-/-spacer-/-component-/-horizontal-/-spacing-10-(64px)-/-off" transform="translate(142.000000, 0.000000)">
                    <rect height="32" id="spacer" width="64" x="0" y="0"/>
                </g>
                <text fill="#FFFFFF" font-family="IBMPlexSans, IBM Plex Sans" font-size="14" font-weight="normal" id="Label" letter-spacing="0.159999996" line-spacing="18"> <tspan x="16" y="21">Configure and deploy</tspan> </text>
            </g>
            <g fill="#FFFFFF" fill-rule="evenodd" filter="url(#filter-1)" id="Brand-/-IBM-/-ibm-cloud-/-16">
				<g transform="translate(174.000000, 8.000000)">
					<path id="Fill_00000045580465054068926130000010333391062134768831_" class="st6" d="M26,6.8c-1-1.9-3-2.9-5-2.5
						s-3.5,2.3-3.6,4.4c-1.7,0.2-2.9,1.7-2.8,3.5c0.1,1.8,1.5,3.2,3.2,3.2h7.5c2.1,0,3.9-1.7,4.1-4S28.1,7.2,26,6.8L26,6.8z
						 M25.3,14.8h-7.5c-1.3,0-2.4-1.1-2.5-2.4s0.9-2.6,2.1-2.8c0,0.7,0.2,1.3,0.5,1.9c0.1,0.1,0.2,0.2,0.3,0.2c0.1,0,0.2-0.1,0.3-0.2
						c0.1-0.1,0.1-0.3,0-0.4c-1-1.9-0.4-4.3,1.4-5.5s4-0.6,5.2,1.1c-1.1,0-2.2,0.6-3,1.5c-0.1,0.1-0.1,0.2-0.1,0.4
						c0,0.1,0.1,0.2,0.3,0.3c0.1,0,0.3,0,0.3-0.1c1-1.3,2.7-1.6,4.1-0.8c1.4,0.8,2.1,2.5,1.7,4.1S26.9,14.7,25.3,14.8L25.3,14.8z
						 M29.5,5.1C29.4,5,29.4,5,29.3,5c-0.1,0-0.2,0-0.3,0l-1.4,0.9c-0.1,0.1-0.2,0.2-0.2,0.3c0,0.1,0.1,0.3,0.2,0.3
						c0.1,0.1,0.3,0.1,0.4,0l1.4-0.9C29.5,5.5,29.6,5.3,29.5,5.1L29.5,5.1z M25.1,3.9C25.2,4,25.3,4,25.4,4c0.1,0,0.2-0.1,0.2-0.2
						l0.8-1.5c0.1-0.2,0-0.4-0.1-0.5c-0.2-0.1-0.4,0-0.5,0.1L25,3.4C24.9,3.6,25,3.8,25.1,3.9L25.1,3.9z M22,3c0.1,0,0.2,0,0.3-0.1
						c0.1-0.1,0.1-0.2,0.1-0.3V0.9c0-0.2-0.2-0.4-0.4-0.4c-0.2,0-0.4,0.2-0.4,0.4v1.7c0,0.1,0,0.2,0.1,0.3C21.8,3,21.9,3,22,3L22,3z
						 M18.4,3.8C18.5,4,18.7,4,18.9,3.9C19,3.8,19.1,3.6,19,3.4l-0.8-1.5c-0.1-0.1-0.2-0.2-0.3-0.2c-0.1,0-0.2,0.1-0.3,0.2
						c-0.1,0.1-0.1,0.3,0,0.4L18.4,3.8z M16.4,5.9L15,5c-0.1-0.1-0.2-0.1-0.4,0c-0.1,0.1-0.2,0.2-0.2,0.3c0,0.1,0.1,0.3,0.2,0.3
						l1.4,0.9c0.1,0.1,0.2,0.1,0.4,0c0.1-0.1,0.2-0.2,0.2-0.3C16.6,6.1,16.5,5.9,16.4,5.9z"/>
				</g>
            </g>
        </g>
    </g>
</svg>
