<?xml version="1.0" encoding="UTF-8"?>
<svg width="12px" height="14px" viewBox="0 0 12 14" version="1.1" xmlns="http://www.w3.org/2000/svg" xmlns:xlink="http://www.w3.org/1999/xlink">
    <!-- Generator: Sketch 64 (93537) - https://sketch.com -->
    <title>trash-can</title>
    <desc>Created with Sketch.</desc>
    <g id="Playback" stroke="none" stroke-width="1" fill="none" fill-rule="evenodd">
        <g id="Global-search-entry" transform="translate(-788.000000, -67.000000)">
            <g id="trash-can" transform="translate(786.000000, 66.000000)">
                <rect id="Rectangle" fill="#000000" fill-rule="nonzero" x="6" y="6" width="1" height="6"></rect>
                <rect id="Rectangle" fill="#000000" fill-rule="nonzero" x="9" y="6" width="1" height="6"></rect>
                <path d="M2,3 L2,4 L3,4 L3,14 C3,14.5522847 3.44771525,15 4,15 L12,15 C12.5522847,15 13,14.5522847 13,14 L13,4 L14,4 L14,3 L2,3 Z M4,14 L4,4 L12,4 L12,14 L4,14 Z" id="Shape" fill="#000000" fill-rule="nonzero"></path>
                <rect id="Rectangle" fill="#000000" fill-rule="nonzero" x="6" y="1" width="4" height="1"></rect>
                <rect id="_Transparent_Rectangle_" x="0" y="0" width="16" height="16"></rect>
            </g>
        </g>
    </g>
</svg>