<?xml version="1.0" encoding="UTF-8"?>
<svg width="16px" height="17px" viewBox="0 0 16 17" version="1.1" xmlns="http://www.w3.org/2000/svg" xmlns:xlink="http://www.w3.org/1999/xlink">
    <!-- Generator: Sketch 52.2 (67145) - http://www.bohemiancoding.com/sketch -->
    <title>Edit</title>
    <desc>Created with Sketch.</desc>
    <g id="Edit" stroke="none" stroke-width="1" fill="none" fill-rule="evenodd">
        <g id="edit" fill="#161616">
            <path d="M7.926,3.38 L1.002,9.72 L1.002,12 L3.306,12 L10.232,5.684 L7.926,3.38 Z M8.664,2.705 L10.972,5.009 L12.423,3.685 L10.115,1.376 L8.664,2.705 Z M0.002,9.28 L9.439,0.639 C9.83367691,0.277101803 10.4433875,0.29032763 10.822,0.669 L13.131,2.978 C13.3240917,3.17127818 13.4296978,3.43514274 13.4232757,3.70827204 C13.4168536,3.98140134 13.2989624,4.24001078 13.097,4.424 L3.694,13 L0.002,13 L0.002,9.28 Z M0,16.013 L0,15.013 L16,15.013 L16,16.013 L0,16.013 Z" id="Shape"></path>
        </g>
    </g>
</svg>
