<?xml version="1.0" standalone="no"?>
<!DOCTYPE svg PUBLIC "-//W3C//DTD SVG 1.0//EN" "http://www.w3.org/TR/2001/REC-SVG-20010904/DTD/svg10.dtd">
<svg xmlns="http://www.w3.org/2000/svg" xmlns:xlink="http://www.w3.org/1999/xlink" id="body_1" width="20" height="15">

<g transform="matrix(0.01953125 0 0 0.01953125 0 0)">
	<g transform="matrix(24 0 0 24 128 0)">
	</g>
    <path transform="matrix(24 0 0 24 128 0)"  d="M18 28L14 28C 12.89543 28 12 27.10457 12 26L12 26L12 18.41L4.59 11C 4.214413 10.62665 4.002233 10.11958 4 9.59L4 9.59L4 6C 4 4.895431 4.895431 4 6 4L6 4L26 4C 27.10457 4 28 4.895431 28 6L28 6L28 9.59C 27.99777 10.11958 27.78559 10.62665 27.41 11L27.41 11L20 18.41L20 26C 20 27.10457 19.10457 28 18 28zM6 6L6 9.59L14 17.59L14 26L18 26L18 17.59L26 9.59L26 6z" stroke="none" fill="#000000" fill-rule="nonzero" />
	<g transform="matrix(24 0 0 24 128 0)">
	</g>
    <path transform="matrix(24 0 0 24 128 0)"  d="M0 0L32 0L32 32L0 32L0 0z" stroke="none" fill="none" />
</g>
</svg>