<?xml version="1.0" encoding="UTF-8" standalone="no"?>
<svg
   width="16px"
   height="16px"
   viewBox="0 0 16 16"
   version="1.1"
   id="svg112"
   sodipodi:docname="HELP-ALLNEW-FINAL.svg"
   inkscape:version="1.1 (c4e8f9e, 2021-05-24)"
   xmlns:inkscape="http://www.inkscape.org/namespaces/inkscape"
   xmlns:sodipodi="http://sodipodi.sourceforge.net/DTD/sodipodi-0.dtd"
   xmlns="http://www.w3.org/2000/svg"
   xmlns:svg="http://www.w3.org/2000/svg"
   xmlns:rdf="http://www.w3.org/1999/02/22-rdf-syntax-ns#"
   xmlns:cc="http://creativecommons.org/ns#"
   xmlns:dc="http://purl.org/dc/elements/1.1/">
  <sodipodi:namedview
     id="namedview114"
     pagecolor="#ffffff"
     bordercolor="#666666"
     borderopacity="1.0"
     inkscape:pageshadow="2"
     inkscape:pageopacity="0.0"
     inkscape:pagecheckerboard="0"
     showgrid="false"
     inkscape:zoom="52.9375"
     inkscape:cx="11.324675"
     inkscape:cy="8"
     inkscape:window-width="1808"
     inkscape:window-height="971"
     inkscape:window-x="116"
     inkscape:window-y="45"
     inkscape:window-maximized="0"
     inkscape:current-layer="svg112" />
  <!-- Generator: Sketch 59.1 (86144) - https://sketch.com -->
  <title
     id="title99">Cloud Shell Icon</title>
  <desc
     id="desc101">Created with Sketch.</desc>
  <defs
     id="defs104">
    <path
       d="M16.25,2.5 L3.75,2.5 C3.05964406,2.5 2.5,3.05964406 2.5,3.75 L2.5,16.25 C2.5,16.9403559 3.05964406,17.5 3.75,17.5 L16.25,17.5 C16.9403559,17.5 17.5,16.9403559 17.5,16.25 L17.5,3.75 C17.5,3.05964406 16.9403559,2.5 16.25,2.5 Z M16.25,3.75 L16.25,6.25 L3.75,6.25 L3.75,3.75 L16.25,3.75 Z M3.75,16.25 L3.75,7.5 L16.25,7.5 L16.25,16.25 L3.75,16.25 Z M5.99125,10.25875 L7.6075,11.875 L5.99125,13.49125 L6.875,14.375 L9.375,11.875 L6.875,9.375 L5.99125,10.25875 L5.99125,10.25875 Z"
       id="path-1" />
  </defs>
  <path
     d="M 8,1 A 7,7 0 1 0 15,8 7,7 0 0 0 8,1 Z m 0,13 a 6,6 0 1 1 6,-6 6,6 0 0 1 -6,6 z"
     id="path677"
     style="stroke-width:0.5" />
  <path
     d="m 8.5000056,4.0000056 h -0.75 a 2.245,2.245 0 0 0 -2.25,2.25 v 0.25 h 1 v -0.25 a 1.25,1.25 0 0 1 1.25,-1.25 h 0.75 a 1.25,1.25 0 0 1 0,2.5 h -1 v 2.2500002 h 1 v -1.25 a 2.2500001,2.2500001 0 0 0 0,-4.5000002 z"
     id="path681"
     style="stroke-width:0.5" />
  <circle
     cx="8"
     cy="11.75"
     id="circle679"
     style="stroke-width:0.5"
     r="0.75" />
  <metadata
     id="metadata278">
    <rdf:RDF>
      <cc:Work
         rdf:about="">
        <dc:title>Cloud Shell Icon</dc:title>
      </cc:Work>
    </rdf:RDF>
  </metadata>
</svg>
