<?xml version="1.0" encoding="UTF-8"?>
<svg width="12px" height="13px" viewBox="0 0 12 13" version="1.1" xmlns="http://www.w3.org/2000/svg" xmlns:xlink="http://www.w3.org/1999/xlink">
    <title>Actions / Operations / launch / 16</title>
    <g id="Page-1" stroke="none" stroke-width="1" fill="none" fill-rule="evenodd">
        <g id="Actions-/-Operations-/-launch-/-16" transform="translate(-1.500000, 0.000000)" fill="#0f62fe">
            <path d="M11.375,12.25 L2.625,12.25 C2.14202063,12.2493493 1.75065071,11.8579794 1.75,11.375 L1.75,2.625 C1.75065071,2.14202063 2.14202063,1.75065071 2.625,1.75 L7,1.75 L7,2.625 L2.625,2.625 L2.625,11.375 L11.375,11.375 L11.375,7 L12.25,7 L12.25,11.375 C12.2493493,11.8579794 11.8579794,12.2493493 11.375,12.25 Z M8.75,0.875 L8.75,1.75 L11.631375,1.75 L7.875,5.506375 L8.493625,6.125 L12.25,2.368625 L12.25,5.25 L13.125,5.25 L13.125,0.875 L8.75,0.875 L8.75,0.875 Z" id="Fill"></path>
        </g>
    </g>
</svg>