<?xml version="1.0" encoding="UTF-8"?>
<svg width="16px" height="16px" viewBox="0 0 16 16" version="1.1" xmlns="http://www.w3.org/2000/svg" xmlns:xlink="http://www.w3.org/1999/xlink">
    <!-- Generator: Sketch 54 (76480) - https://sketchapp.com -->
    <title>icon-launch</title>
    <desc>Created with Sketch.</desc>
    <g id="icon-launch" stroke="none" stroke-width="1" fill="none" fill-rule="evenodd">
        <g id="launch">
            <polygon id="Path" fill="#000000" points="14.3 1 10.5 1 10.5 0 16 0 16 5.5 15 5.5 15 1.7 9.7 7 9 6.3"></polygon>
            <polygon id="Path" fill="#3D70B2" points="14.3 1 10.5 1 10.5 0 16 0 16 5.5 15 5.5 15 1.7 9.7 7 9 6.3"></polygon>
            <path d="M13,9 L14,9 L14,15 C14,15.6 13.6,16 13,16 L1,16 C0.4,16 0,15.6 0,15 L0,3 C0,2.4 0.4,2 1,2 L8,2 L8,3 L1,3 L1,15 L13,15 L13,9 Z" id="Path" fill="#3D70B2"></path>
        </g>
    </g>
</svg>