<?xml version="1.0" encoding="UTF-8"?>
<svg width="12px" height="12px" viewBox="0 0 12 12" version="1.1" xmlns="http://www.w3.org/2000/svg" xmlns:xlink="http://www.w3.org/1999/xlink">
    <title>Brand / Social / logo--slack / 16</title>
    <g id="Page-1" stroke="none" stroke-width="1" fill="none" fill-rule="evenodd">
        <g id="Brand-/-Social-/-logo--slack-/-16" transform="translate(-2.000000, -2.000000)" fill="#000000">
            <path d="M4.52115,9.58305 C4.52115,10.0929242 4.21404231,10.5526032 3.74298383,10.747733 C3.27192536,10.9428627 2.7297067,10.8350143 2.36917119,10.4744788 C2.00863568,10.1139433 1.90078728,9.57172464 2.09591703,9.10066617 C2.29104678,8.62960769 2.75072579,8.3225 3.2606,8.3225 L4.52115,8.3225 L4.52115,9.58305 Z M5.15632489,9.58305 C5.16071513,8.88995201 5.72381326,8.3303891 6.416925,8.3303891 C7.11003674,8.3303891 7.67313487,8.88995201 7.67752511,9.58305 L7.67752511,12.7394 C7.68034828,13.1916515 7.44070891,13.6107732 7.04951545,13.8377251 C6.65832198,14.0646771 6.17552802,14.0646771 5.78433455,13.8377251 C5.39314109,13.6107732 5.15350172,13.1916515 5.15632489,12.7394 L5.15632489,9.58305 Z M6.41695,4.52115 C5.90707579,4.52115 5.44739678,4.21404231 5.25226703,3.74298383 C5.05713728,3.27192536 5.16498568,2.7297067 5.52552119,2.36917119 C5.8860567,2.00863568 6.42827536,1.90078728 6.89933383,2.09591703 C7.37039231,2.29104678 7.6775,2.75072579 7.6775,3.2606 L7.6775,4.52115 L6.41695,4.52115 Z M6.41695,5.15632489 C7.11004799,5.16071513 7.6696109,5.72381326 7.6696109,6.416925 C7.6696109,7.11003674 7.11004799,7.67313487 6.41695,7.67752511 L3.2606,7.67752511 C2.80834851,7.68034828 2.38922683,7.44070891 2.16227487,7.04951545 C1.9353229,6.65832198 1.9353229,6.17552802 2.16227487,5.78433455 C2.38922683,5.39314109 2.80834851,5.15350172 3.2606,5.15632489 L6.41695,5.15632489 Z M11.47885,6.41695 C11.47885,5.90707579 11.7859577,5.44739678 12.2570162,5.25226703 C12.7280746,5.05713728 13.2702933,5.16498568 13.6308288,5.52552119 C13.9913643,5.8860567 14.0992127,6.42827536 13.904083,6.89933383 C13.7089532,7.37039231 13.2492742,7.6775 12.7394,7.6775 L11.47885,7.6775 L11.47885,6.41695 Z M10.8436751,6.41695 C10.8392849,7.11004799 10.2761867,7.6696109 9.583075,7.6696109 C8.88996326,7.6696109 8.32686513,7.11004799 8.32247489,6.41695 L8.32247489,3.2606 C8.31965172,2.80834851 8.55929109,2.38922683 8.95048455,2.16227487 C9.34167802,1.9353229 9.82447198,1.9353229 10.2156654,2.16227487 C10.6068589,2.38922683 10.8464983,2.80834851 10.8436751,3.2606 L10.8436751,6.41695 Z M9.58305,11.47885 C10.0929242,11.47885 10.5526032,11.7859577 10.747733,12.2570162 C10.9428627,12.7280746 10.8350143,13.2702933 10.4744788,13.6308288 C10.1139433,13.9913643 9.57172464,14.0992127 9.10066617,13.904083 C8.62960769,13.7089532 8.3225,13.2492742 8.3225,12.7394 L8.3225,11.47885 L9.58305,11.47885 Z M9.58305,10.8436751 C8.88995201,10.8392849 8.3303891,10.2761867 8.3303891,9.583075 C8.3303891,8.88996326 8.88995201,8.32686513 9.58305,8.32247489 L12.7394,8.32247489 C13.1916515,8.31965172 13.6107732,8.55929109 13.8377251,8.95048455 C14.0646771,9.34167802 14.0646771,9.82447198 13.8377251,10.2156654 C13.6107732,10.6068589 13.1916515,10.8464983 12.7394,10.8436751 L9.58305,10.8436751 Z" id="Fill"></path>
        </g>
    </g>
</svg>