<?xml version="1.0" encoding="UTF-8"?>
<svg width="14px" height="14px" viewBox="0 0 14 14" version="1.1" xmlns="http://www.w3.org/2000/svg" xmlns:xlink="http://www.w3.org/1999/xlink">
    <title>Brand / Social / logo--github / 16</title>
    <g id="Page-1" stroke="none" stroke-width="1" fill="none" fill-rule="evenodd">
        <g id="Brand-/-Social-/-logo--github-/-16" transform="translate(0.000307, -0.000042)" fill="#000000">
            <path d="M6.99969345,0 C3.56714992,0.000504314408 0.64134958,2.48984964 0.0911461004,5.87801012 C-0.45905738,9.2661706 1.52868067,12.5534256 4.78469345,13.6400424 C5.13469345,13.7050424 5.28469345,13.4900424 5.28469345,13.3050424 C5.28469345,13.1200424 5.28469345,12.7000424 5.28469345,12.1150424 C3.33969345,12.5350424 2.92969345,11.1750424 2.92969345,11.1750424 C2.79291926,10.7464579 2.5050535,10.3821834 2.11969345,10.1500424 C1.48469345,9.72004237 2.16969345,9.72504237 2.16969345,9.72504237 C2.61916946,9.78853727 3.01409874,10.0561295 3.23969345,10.4500424 C3.64298497,11.1733792 4.55617745,11.4330124 5.27969345,11.0300424 C5.30792382,10.6752778 5.46432761,10.3429197 5.71969345,10.0950424 C4.16969345,9.91504237 2.53469345,9.31504237 2.53469345,6.63504237 C2.5233574,5.93898953 2.78130622,5.2654565 3.25469345,4.75504237 C3.04042399,4.15213972 3.06547682,3.49002932 3.32469345,2.90504237 C3.32469345,2.90504237 3.90969345,2.71504237 5.24969345,3.62004237 C6.39543038,3.307517 7.60395652,3.307517 8.74969345,3.62004237 C10.0846935,2.71504237 10.6696935,2.90504237 10.6696935,2.90504237 C10.9289101,3.49002932 10.9539629,4.15213972 10.7396935,4.75504237 C11.2130807,5.2654565 11.4710295,5.93898953 11.4596935,6.63504237 C11.4596935,9.32504237 9.82469345,9.91504237 8.26469345,10.0900424 C8.60279621,10.4327405 8.77602064,10.905005 8.73969345,11.3850424 C8.73969345,12.3200424 8.73969345,13.0750424 8.73969345,13.3050424 C8.73969345,13.5350424 8.86469345,13.7100424 9.23969345,13.6400424 C12.5002605,12.5519739 14.4883775,9.25752443 13.9313517,5.86563515 C13.3743259,2.47374587 10.4369961,-0.0118325696 6.99969345,0 Z" id="Fill"></path>
        </g>
    </g>
</svg>