<?xml version="1.0" encoding="UTF-8"?>
<svg width="81px" height="81px" viewBox="0 0 81 81" version="1.1" xmlns="http://www.w3.org/2000/svg" xmlns:xlink="http://www.w3.org/1999/xlink">
    <!-- Generator: Sketch 54 (76480) - https://sketchapp.com -->
    <title>no-results-icon</title>
    <desc>Created with Sketch.</desc>
    <g id="no-results-icon" stroke="none" stroke-width="1" fill="none" fill-rule="evenodd">
        <g id="Group" transform="translate(0.000000, 1.000000)">
            <g id="support_empty_v3-copy-2" fill-rule="nonzero">
                <ellipse id="Oval" fill-opacity="0.247905344" fill="#DFE3E6" cx="40.2347418" cy="40" rx="40.2347418" ry="40"></ellipse>
                <rect id="Rectangle" fill="#FFFFFF" x="13.4115806" y="30.877193" width="53.6463224" height="35.7894737"></rect>
                <path d="M66.9295625,67.3684211 L13.5399211,67.3684211 C13.0817022,67.3624415 12.7116985,66.9931184 12.7057079,66.5357423 L12.7057079,31.0081173 C12.7116985,30.5507413 13.0817022,30.1814181 13.5399211,30.1754386 L66.9295625,30.1754386 C67.3877814,30.1814181 67.7577851,30.5507413 67.7637756,31.0081173 L67.7637756,66.5357423 C67.7577851,66.9931184 67.3877814,67.3624415 66.9295625,67.3684211 L66.9295625,67.3684211 Z M14.3741342,65.7030636 L66.0953493,65.7030636 L66.0953493,31.840796 L14.3741342,31.840796 L14.3741342,65.7030636 Z" id="Shape" fill="#3D70B2"></path>
                <path d="M12.7057079,26.8261563 C12.7057079,26.3505044 13.0791979,25.9649123 13.5399211,25.9649123 L66.9295625,25.9649123 C67.3902857,25.9649123 67.7637756,26.3505044 67.7637756,26.8261563 L67.7637756,31.4194577 C67.7637756,31.8951097 67.3902857,32.2807018 66.9295625,32.2807018 L13.5399211,32.2807018 C13.0791979,32.2807018 12.7057079,31.8951097 12.7057079,31.4194577 L12.7057079,26.8261563 Z" id="Rectangle" fill="#FFFFFF"></path>
                <path d="M12.7057079,26.8261563 C12.7057079,26.3505044 13.0791979,25.9649123 13.5399211,25.9649123 L66.9295625,25.9649123 C67.3902857,25.9649123 67.7637756,26.3505044 67.7637756,26.8261563 L67.7637756,31.4194577 C67.7637756,31.8951097 67.3902857,32.2807018 66.9295625,32.2807018 L13.5399211,32.2807018 C13.0791979,32.2807018 12.7057079,31.8951097 12.7057079,31.4194577 L12.7057079,26.8261563 Z M14.3741342,27.6874003 L14.3741342,30.5582137 L66.0953493,30.5582137 L66.0953493,27.6874003 L14.3741342,27.6874003 Z" id="Rectangle" fill="#3D70B2"></path>
                <path d="M17.7741051,39.2982456 L49.9896706,39.2982456 C50.4498128,39.2982456 50.8228317,38.9840595 50.8228317,38.5964912 C50.8228317,38.208923 50.4498128,37.8947368 49.9896706,37.8947368 L17.7741051,37.8947368 C17.3139629,37.8947368 16.9409439,38.208923 16.9409439,38.5964912 C16.9409439,38.9840595 17.3139629,39.2982456 17.7741051,39.2982456 Z" id="Path" fill-opacity="0.1" fill="#3D70B2"></path>
                <path d="M17.7836694,46.3157895 L43.6272522,46.3157895 C44.0926767,46.3157895 44.4699778,46.0016033 44.4699778,45.6140351 C44.4699778,45.2264668 44.0926767,44.9122807 43.6272522,44.9122807 L17.7836694,44.9122807 C17.318245,44.9122807 16.9409439,45.2264668 16.9409439,45.6140351 C16.9409439,46.0016033 17.318245,46.3157895 17.7836694,46.3157895 Z" id="Path" fill-opacity="0.1" fill="#3D70B2"></path>
                <path d="M17.7741051,52.6315789 L49.9896706,52.6315789 C50.4498128,52.6315789 50.8228317,52.3173928 50.8228317,51.9298246 C50.8228317,51.5422563 50.4498128,51.2280702 49.9896706,51.2280702 L17.7741051,51.2280702 C17.3139629,51.2280702 16.9409439,51.5422563 16.9409439,51.9298246 C16.9409439,52.3173928 17.3139629,52.6315789 17.7741051,52.6315789 Z" id="Path" fill-opacity="0.1" fill="#3D70B2"></path>
                <path d="M17.7836694,59.6491228 L43.6272522,59.6491228 C44.0926767,59.6491228 44.4699778,59.3349367 44.4699778,58.9473684 C44.4699778,58.5598002 44.0926767,58.245614 43.6272522,58.245614 L17.7836694,58.245614 C17.318245,58.245614 16.9409439,58.5598002 16.9409439,58.9473684 C16.9409439,59.3349367 17.318245,59.6491228 17.7836694,59.6491228 Z" id="Path" fill-opacity="0.1" fill="#3D70B2"></path>
                <ellipse id="Oval" fill="#3D70B2" cx="55.0580677" cy="16.1403509" rx="1" ry="1"></ellipse>
                <ellipse id="Oval" fill="#3D70B2" cx="43.0582324" cy="7.01754386" rx="1" ry="1"></ellipse>
                <path d="M25.2937704,10.6432749 C26.5932461,10.6432749 27.6466793,9.59598772 27.6466793,8.30409357 C27.6466793,7.98112003 27.9100376,7.71929825 28.2349065,7.71929825 C28.5597754,7.71929825 28.8231337,7.98112003 28.8231337,8.30409357 C28.8231337,9.59598772 29.8765669,10.6432749 31.1760426,10.6432749 C31.5009115,10.6432749 31.7642698,10.9050966 31.7642698,11.2280702 C31.758011,11.5484309 31.4982834,11.8066432 31.1760426,11.8128655 C29.8765669,11.8128655 28.8231337,12.8601526 28.8231337,14.1520468 C28.8168749,14.4724075 28.5571473,14.7306198 28.2349065,14.7368421 C27.9100376,14.7368421 27.6466793,14.4750203 27.6466793,14.1520468 C27.6466793,12.8601526 26.5932461,11.8128655 25.2937704,11.8128655 C24.9689015,11.8128655 24.7055432,11.5510437 24.7055432,11.2280702 C24.7055432,11.0729728 24.767517,10.9242278 24.877831,10.8145574 C24.988145,10.704887 25.1377629,10.6432749 25.2937704,10.6432749 Z" id="Path" fill="#3D70B2"></path>
                <path d="M72.7048843,66.6666667 L19.0585619,66.6666667" id="Path" fill="#FFFFFF"></path>
                <path d="M19.1907966,67.3684211 L72.5726496,67.3684211 C73.0355235,67.3684211 73.4107569,67.0542349 73.4107569,66.6666667 C73.4107569,66.2790984 73.0355235,65.9649123 72.5726496,65.9649123 L19.1907966,65.9649123 C18.7279227,65.9649123 18.3526892,66.2790984 18.3526892,66.6666667 C18.3526892,67.0542349 18.7279227,67.3684211 19.1907966,67.3684211 Z" id="Path" fill="#3D70B2"></path>
                <path d="M79.7636109,66.6666667 L77.6459929,66.6666667" id="Path" fill="#FFFFFF"></path>
                <path d="M77.7673148,67.3684211 L79.642289,67.3684211 C80.099136,67.3684211 80.4694836,67.0542349 80.4694836,66.6666667 C80.4694836,66.2790984 80.099136,65.9649123 79.642289,65.9649123 L77.7673148,65.9649123 C77.3104679,65.9649123 76.9401203,66.2790984 76.9401203,66.6666667 C76.9401203,67.0542349 77.3104679,67.3684211 77.7673148,67.3684211 L77.7673148,67.3684211 Z" id="Path" fill="#3D70B2"></path>
                <path d="M0.823518107,67.3684211 L13.9998078,67.3684211 C14.4546243,67.3684211 14.8233259,67.0542349 14.8233259,66.6666667 C14.8233259,66.2790984 14.4546243,65.9649123 13.9998078,65.9649123 L0.823518107,65.9649123 C0.368701615,65.9649123 5.56989561e-17,66.2790984 0,66.6666667 C-5.56989561e-17,67.0542349 0.368701615,67.3684211 0.823518107,67.3684211 Z" id="Path" fill="#3D70B2"></path>
            </g>
            <g id="Group-2" transform="translate(57.000000, 40.000000)">
                <g id="Group-4">
                    <path d="M15.7308607,15.6950607 L18.9546731,18.866808 C19.4413223,19.3455977 19.4578362,20.1249636 18.9919048,20.6239375 C18.5413757,21.1064168 17.785023,21.1323175 17.3025437,20.6817884 C17.2949461,20.6746939 17.2874413,20.6675006 17.2800313,20.6602103 L14.1656156,17.5960929 C12.85801,18.7589515 11.1655305,19.4666667 9.23333333,19.4666667 C4.68618889,19.4666667 1,15.7804778 1,11.2333333 C1,6.68618889 4.68618889,3 9.23333333,3 C13.7804778,3 17,6.45285556 17,11 C17,12.7126929 16.5432559,14.3363469 15.7308607,15.6950607 Z M8.21684542,16.9333339 C11.3739748,16.9333339 13.9333339,14.3739749 13.9333339,11.2168454 C13.9333339,8.05971601 11.3739748,5.50035693 8.21684542,5.50035693 C5.059716,5.50035693 2.50035692,8.05971601 2.50035692,11.2168454 C2.50035692,14.3739749 5.059716,16.9333339 8.21684542,16.9333339 Z" id="Combined-Shape-Copy" fill-opacity="0.08" fill="#000000" fill-rule="nonzero"></path>
                    <circle id="Oval" fill="#EBF0F7" cx="9" cy="9" r="9"></circle>
                    <circle id="Oval" fill="#FFFFFF" cx="9.5" cy="9.5" r="6.5"></circle>
                    <path d="M15.2778981,13.5132693 L19.1465666,17.2682294 C19.6039539,17.712173 19.6194085,18.4413535 19.1812418,18.904278 C18.750118,19.3597617 18.0313806,19.3795092 17.5758969,18.9483854 C17.5724456,18.9451187 17.5690148,18.9418303 17.5656048,18.9385205 L13.6339667,15.1224417 C12.3179993,16.080469 10.6910821,16.6467357 8.93010178,16.6467357 C4.5504275,16.6467357 1,13.1440946 1,8.82336786 C1,4.5026411 4.5504275,1 8.93010178,1 C13.3097761,1 16.8602036,4.5026411 16.8602036,8.82336786 C16.8602036,10.5827247 16.2715295,12.2064398 15.2778981,13.5132693 Z M8.91422111,14.2395462 C11.9550743,14.2395462 14.4201728,11.8076262 14.4201728,8.80770095 C14.4201728,5.80777566 11.9550743,3.37585572 8.91422111,3.37585572 C5.87336795,3.37585572 3.40826941,5.80777566 3.40826941,8.80770095 C3.40826941,11.8076262 5.87336795,14.2395462 8.91422111,14.2395462 Z" id="Combined-Shape-Copy" fill="#3D70B2" fill-rule="nonzero"></path>
                </g>
            </g>
        </g>
    </g>
</svg>
