<?xml version="1.0" encoding="utf-8"?>
<!-- Generator: Adobe Illustrator 26.0.1, SVG Export Plug-In . SVG Version: 6.00 Build 0)  -->
<svg version="1.1" id="icon" xmlns="http://www.w3.org/2000/svg" xmlns:xlink="http://www.w3.org/1999/xlink" x="0px" y="0px"
	width="20px" height="20px" viewBox="0 0 16 16" style="enable-background:new 0 0 16 16;" xml:space="preserve">
<style type="text/css">
	.st0{fill:none;}
</style>
<path d="M5.5,11.5C5.2,11.5,5,11.3,5,11V5c0-0.3,0.2-0.5,0.5-0.5c0.1,0,0.2,0,0.2,0.1l6,3C12,7.7,12.1,8,11.9,8.2
	c0,0.1-0.1,0.2-0.2,0.2l-6,3C5.7,11.5,5.6,11.5,5.5,11.5z M6,5.8v4.4L10.4,8L6,5.8z"/>
<path d="M8,2c3.3,0,6,2.7,6,6s-2.7,6-6,6s-6-2.7-6-6S4.7,2,8,2 M8,1C4.1,1,1,4.1,1,8s3.1,7,7,7s7-3.1,7-7S11.9,1,8,1z"/>
<rect id="_Transparent_Rectangle_" class="st0" width="16" height="16"/>
</svg>
