<svg xmlns="http://www.w3.org/2000/svg" xmlns:xlink="http://www.w3.org/1999/xlink" viewBox="0 0 106.41 101.55"><defs><style>.cls-1{fill:url(#linear-gradient);}.cls-2{fill:url(#linear-gradient-2);}.cls-3{fill:url(#linear-gradient-3);}.cls-4{fill:#e0e0e0;}.cls-5{fill:#c6c6c6;}.cls-6{fill:#a8a8a8;}.cls-7{fill:url(#linear-gradient-4);}</style><linearGradient id="linear-gradient" x1="77.9" y1="52.89" x2="16.7" y2="88.98" gradientUnits="userSpaceOnUse"><stop offset="0" stop-color="#f4f4f4"/><stop offset="0.99" stop-color="#fff"/><stop offset="1" stop-color="#fff"/></linearGradient><linearGradient id="linear-gradient-2" x1="53.21" y1="84.5" x2="106.41" y2="84.5" gradientUnits="userSpaceOnUse"><stop offset="0" stop-color="#e0e0e0"/><stop offset="1" stop-color="#c6c6c6"/></linearGradient><linearGradient id="linear-gradient-3" x1="1976.38" y1="84.5" x2="2042.36" y2="84.5" gradientTransform="matrix(-1, 0, 0, 1, 2029.58, 0)" gradientUnits="userSpaceOnUse"><stop offset="0" stop-color="#e0e0e0"/><stop offset="1" stop-color="#f4f4f4"/></linearGradient><linearGradient id="linear-gradient-4" x1="-69.32" y1="-31.95" x2="235.51" y2="114.69" gradientUnits="userSpaceOnUse"><stop offset="0" stop-color="#e0e0e0" stop-opacity="0.1"/><stop offset="0.22" stop-color="#d2d2d2" stop-opacity="0.33"/><stop offset="0.72" stop-color="#afafaf" stop-opacity="0.89"/><stop offset="0.81" stop-color="#a8a8a8"/></linearGradient></defs><g id="Layer_2" data-name="Layer 2"><g id="Layer_1-2" data-name="Layer 1"><polygon class="cls-1" points="106.41 67.45 53.21 98.22 0 67.45 53.1 36.68 106.41 67.45"/><polygon class="cls-2" points="106.41 67.45 106.41 70.77 53.21 101.55 53.21 98.22 106.41 67.45"/><polygon class="cls-3" points="0 67.45 0 70.77 53.21 101.55 53.21 98.22 0 67.45"/><polygon class="cls-4" points="77.01 77.54 63.03 69.42 65.4 68.04 38.6 52.36 29.21 57.82 56.01 73.5 58.37 72.13 72.34 80.25 77.01 77.54"/><path class="cls-5" d="M30.06,16.39c0,12.11,8.81,27,19.68,33.29C55.42,53,60.54,53.23,64.13,51h0L69,48.21l-1.2-1.94C64.53,48,60,47.65,55.05,44.78c-10-5.75-18-19.41-18-30.5,0-5.13,1.73-8.81,4.56-10.72l-1.2-2-4.86,2.8h0c-3.38,2-5.46,6.12-5.46,12"/><path class="cls-5" d="M85,63.65s.11.86-1.9,2.25-2.75,1.18-2.75,1.18L66.16,47.85l4.65-3.44Z"/><path class="cls-6" d="M55.21,44.66c-10-5.75-18-19.41-18-30.5,0-3.82,1-6.83,2.61-8.91-4.9.76-8.13,5.07-8.13,12.1,0,11.09,8.07,24.75,18,30.5,6.54,3.78,12.27,3.21,15.43-.77-2.84.44-6.24-.31-9.9-2.42"/><path class="cls-7" d="M64.54,49.29c-.19.08-1.28-.47-1.28-.47a7.9,7.9,0,0,1-1.29.74C55.94,49,45.74,42,40.86,34.47c-5.12-7.92-9.69-20.94-5-27.59a8.46,8.46,0,0,1,1.61-1c1.26-.59,2.31-2,4.1-2.36,4.37-.77,21.64,8.53,24.59,17.53C68.33,27.71,74.42,45.52,64.54,49.29Z"/><path class="cls-5" d="M74.67,36.06C74.67,24,65.86,9.05,55,2.77,49.31-.51,44.19-.78,40.6,1.44h0L35.74,4.24l1.2,1.94C40.2,4.44,44.71,4.8,49.68,7.67c10,5.75,18,19.41,18,30.5,0,5.13-1.72,8.81-4.56,10.72l1.21,2,4.85-2.81h0c3.37-2,5.45-6.12,5.45-12"/></g></g></svg>