<?xml version="1.0" encoding="UTF-8"?>
<svg width="32px" height="32px" viewBox="0 0 32 32" version="1.1" xmlns="http://www.w3.org/2000/svg" xmlns:xlink="http://www.w3.org/1999/xlink">
    <title>subtract--alt</title>
    <g id="Page-1" stroke="none" stroke-width="1" fill="none" fill-rule="evenodd">
        <g id="subtract--alt">
            <path d="M16,4 C22.6,4 28,9.4 28,16 C28,22.6 22.6,28 16,28 C9.4,28 4,22.6 4,16 C4,9.4 9.4,4 16,4 M16,2 C8.3,2 2,8.3 2,16 C2,23.7 8.3,30 16,30 C23.7,30 30,23.7 30,16 C30,8.3 23.7,2 16,2 Z" id="Shape" fill="#000000" fill-rule="nonzero"></path>
            <rect id="Rectangle" fill="#000000" fill-rule="nonzero" x="8" y="15" width="16" height="2"></rect>
            <rect id="_Transparent_Rectangle_" x="0" y="0" width="32" height="32"></rect>
        </g>
    </g>
</svg>