<svg id="Small_Illustrations" data-name="Small Illustrations" xmlns="http://www.w3.org/2000/svg" viewBox="0 0 72 72"><defs><style>.cls-1{fill:#eaeaea;}.cls-2{fill:#f3f3f3;}.cls-3{fill:#fff;}.cls-4{fill:#6c7185;}.cls-5,.cls-8{fill:#d8d8d8;}.cls-5{stroke:#6c7185;stroke-linecap:square;stroke-linejoin:round;}.cls-5,.cls-6{stroke-width:1.5px;}.cls-6{fill:none;stroke:#d8d8d8;stroke-linecap:round;stroke-miterlimit:10;}.cls-7{fill:#1a1818;opacity:0.1;}</style></defs><title>support_empty_v3</title><circle class="cls-1" cx="36" cy="36" r="36"/><circle class="cls-2" cx="36" cy="36" r="36"/><rect class="cls-3" x="12" y="28" width="48" height="32"/><path class="cls-4" d="M60,60.75H12a.76.76,0,0,1-.75-.75V28a.76.76,0,0,1,.75-.75H60a.76.76,0,0,1,.75.75V60A.76.76,0,0,1,60,60.75Zm-47.25-1.5h46.5V28.75H12.75Z"/><rect class="cls-5" x="12" y="24" width="48" height="4"/><line class="cls-6" x1="16" y1="35" x2="45" y2="35"/><line class="cls-6" x1="16" y1="41" x2="39" y2="41"/><line class="cls-6" x1="16" y1="47" x2="45" y2="47"/><line class="cls-6" x1="16" y1="53" x2="39" y2="53"/><path class="cls-7" d="M55.63,33a7.37,7.37,0,0,0-4.05,1.2l1.13,1.13.15.15L56.38,39a1.5,1.5,0,1,1-2.1,2.1l-3.67-3.52-.23-.15-1.05-1.13a7.43,7.43,0,0,0-1.27,4.28,7.6,7.6,0,0,0,7.57,7.57,8.15,8.15,0,0,0,1.95-.22l5,5a3.76,3.76,0,1,0,5.32-5.32l-5-5a8.15,8.15,0,0,0,.22-2A7.5,7.5,0,0,0,55.63,33Z"/><path class="cls-4" d="M55.63,32a7.37,7.37,0,0,0-4.05,1.2l1.13,1.13.15.15L56.38,38a1.5,1.5,0,1,1-2.1,2.1l-3.67-3.52-.23-.15-1.05-1.13a7.43,7.43,0,0,0-1.27,4.28,7.6,7.6,0,0,0,7.57,7.57,8.15,8.15,0,0,0,1.95-.22l5,5a3.76,3.76,0,1,0,5.32-5.32l-5-5a8.15,8.15,0,0,0,.22-2A7.5,7.5,0,0,0,55.63,32Z"/><path class="cls-8" d="M61.63,39.57a5.67,5.67,0,0,1-.22,1.57l-.23.83.6.6,5,5a2.16,2.16,0,0,1,.67,1.58,2,2,0,0,1-.67,1.57,2.17,2.17,0,0,1-3.15,0l-5-5-.6-.6-.82.22a5.75,5.75,0,0,1-1.58.23,6.19,6.19,0,0,1-4.27-1.73,5.7,5.7,0,0,1-1.8-4.27,6.19,6.19,0,0,1,.22-1.65l3.3,3.3a3,3,0,1,0,4.28-4.28l-3.3-3.3a4.81,4.81,0,0,1,1.5-.22,6.22,6.22,0,0,1,4.27,1.72A6.35,6.35,0,0,1,61.63,39.57Z"/><circle class="cls-4" cx="49.28" cy="14.47" r="0.75"/><circle class="cls-4" cx="38.56" cy="6.47" r="0.75"/><path class="cls-4" d="M22.47,9.72a2,2,0,0,0,2-2,.5.5,0,0,1,.5-.5.5.5,0,0,1,.5.5,2,2,0,0,0,2,2,.5.5,0,0,1,.5.5.51.51,0,0,1-.5.5,2,2,0,0,0-2,2,.51.51,0,0,1-.5.5.5.5,0,0,1-.5-.5,2,2,0,0,0-2-2,.5.5,0,0,1-.5-.5A.5.5,0,0,1,22.47,9.72Z"/><line class="cls-3" x1="65.05" y1="60" x2="17.28" y2="60"/><path class="cls-4" d="M17.28,60.75H65.05a.75.75,0,0,0,0-1.5H17.28a.75.75,0,0,0,0,1.5Z"/><line class="cls-3" x1="71.25" y1="60" x2="69.55" y2="60"/><path class="cls-4" d="M69.55,60.75h1.7a.75.75,0,0,0,0-1.5h-1.7a.75.75,0,0,0,0,1.5Z"/><path class="cls-4" d="M.75,60.75h12a.75.75,0,1,0,0-1.5H.75a.75.75,0,0,0,0,1.5Z"/></svg>