<?xml version="1.0" encoding="UTF-8"?>
<svg width="20px" height="20px" viewBox="0 0 20 20" version="1.1" xmlns="http://www.w3.org/2000/svg" xmlns:xlink="http://www.w3.org/1999/xlink">
    <!-- Generator: Sketch 50.2 (55047) - http://www.bohemiancoding.com/sketch -->
    <title>Estimator</title>
    <desc>Created with Sketch.</desc>
    <defs>
        <path d="M11.25,12.5 L11.25,16.25 L1.25,16.25 L1.25,1.25 L7.5,1.25 L7.5,0 L1.25,0 C0.559644063,0 0,0.559644063 0,1.25 L0,16.25 C0,16.9403559 0.559644063,17.5 1.25,17.5 L11.25,17.5 C11.9403559,17.5 12.5,16.9403559 12.5,16.25 L12.5,12.5 L11.25,12.5 Z M15.960625,2.35 L13.9,0.289375 C13.5141683,-0.096426002 12.8886442,-0.096426002 12.5028125,0.289375 L3.75,9.042125 L3.75,12.5 L7.207875,12.5 L15.960625,3.7471875 C16.1459093,3.56191194 16.2500016,3.31061912 16.2500016,3.04859375 C16.2500016,2.78656838 16.1459093,2.53527556 15.960625,2.35 Z M6.690125,11.25 L5,11.25 L5,9.559875 L10.9005625,3.6593125 L12.5906875,5.3494375 L6.690125,11.25 Z M13.4744375,4.465625 L11.784375,2.7755625 L13.201375,1.3585625 L14.8915,3.0486875 L13.4744375,4.465625 Z" id="path-1"></path>
    </defs>
    <g id="Estimator" stroke="none" stroke-width="1" fill="none" fill-rule="evenodd">
        <g id="request--quote" transform="translate(2.000000, 1.000000)">
            <mask id="mask-2" fill="white">
                <use xlink:href="#path-1"></use>
            </mask>
            <use id="Mask" fill="#000000" fill-rule="nonzero" xlink:href="#path-1"></use>
            <g id="color/gray-10" mask="url(#mask-2)">
                <g transform="translate(-2.500000, -1.250000)"></g>
            </g>
        </g>
    </g>
</svg>
